<?xml version="1.0"?>
<svg xmlns="http://www.w3.org/2000/svg"   viewBox="0 -28 358.48363 358"  class=""><g><path d="m179.238281.242188c-83.378906 0-151.21875 67.839843-151.21875 151.226562 0 83.382812 67.839844 151.222656 151.21875 151.222656 83.386719 0 151.226563-67.839844 151.226563-151.222656 0-83.386719-67.839844-151.226562-151.226563-151.226562zm0 288.796874c-75.851562 0-137.566406-61.714843-137.566406-137.570312s61.714844-137.574219 137.566406-137.574219c75.859375 0 137.574219 61.71875 137.574219 137.574219s-61.714844 137.570312-137.574219 137.570312zm0 0" data-original="#000000" class="active-path" data-old_color="#000000" fill="#AC782E"/><path d="m179.238281 21.566406c-71.625 0-129.898437 58.273438-129.898437 129.902344 0 71.625 58.273437 129.898438 129.898437 129.898438 71.636719 0 129.90625-58.273438 129.90625-129.898438 0-71.632812-58.269531-129.902344-129.90625-129.902344zm0 246.148438c-64.101562 0-116.246093-52.148438-116.246093-116.246094 0-64.101562 52.148437-116.25 116.246093-116.25 64.101563 0 116.253907 52.148438 116.253907 116.25 0 64.097656-52.152344 116.246094-116.253907 116.246094zm0 0" data-original="#000000" class="active-path" data-old_color="#000000" fill="#AC782E"/><path d="m13.652344 151.46875c0-22.355469 4.375-44.039062 13.007812-64.457031 1.464844-3.472657-.152344-7.476563-3.628906-8.945313-3.457031-1.464844-7.476562.15625-8.945312 3.632813-9.347657 22.105469-14.085938 45.578125-14.085938 69.769531 0 33.597656 9.351562 66.351562 27.046875 94.726562 1.292969 2.074219 3.519531 3.214844 5.800781 3.214844 1.234375 0 2.480469-.335937 3.605469-1.035156 3.199219-1.996094 4.171875-6.207031 2.179687-9.40625-16.339843-26.203125-24.980468-56.460938-24.980468-87.5zm0 0" data-original="#000000" class="active-path" data-old_color="#000000" fill="#AC782E"/><path d="m326.867188 49.769531c-2.148438-3.101562-6.386719-3.894531-9.5-1.742187-3.101563 2.144531-3.878907 6.394531-1.742188 9.496094 19.105469 27.6875 29.207031 60.175781 29.207031 93.945312 0 33.183594-9.777343 65.195312-28.273437 92.570312-2.113282 3.128907-1.292969 7.371094 1.832031 9.480469 1.167969.792969 2.503906 1.171875 3.8125 1.171875 2.195313 0 4.347656-1.050781 5.660156-3.003906 20.035157-29.640625 30.621094-64.300781 30.621094-100.21875 0-36.554688-10.933594-71.71875-31.617187-101.699219zm0 0" data-original="#000000" class="active-path" data-old_color="#000000" fill="#AC782E"/><path d="m196.105469 213.003906c0 9.3125-7.550781 16.863282-16.863281 16.863282s-16.863282-7.550782-16.863282-16.863282 7.550782-16.863281 16.863282-16.863281 16.863281 7.550781 16.863281 16.863281zm0 0" data-original="#000000" class="active-path" data-old_color="#000000" fill="#AC782E"/><path d="m179.238281 62.042969c-6.8125 0-13.371093 2.875-17.984375 7.890625-4.613281 5.015625-6.933594 11.792968-6.363281 18.578125l6.242187 74.9375c.777344 9.34375 8.730469 16.660156 18.105469 16.660156 9.371094 0 17.332031-7.316406 18.113281-16.664063l6.238282-74.929687c.574218-6.789063-1.746094-13.5625-6.359375-18.578125-4.617188-5.019531-11.171875-7.894531-17.992188-7.894531zm4.515625 100.265625c-.199218 2.363281-2.140625 4.148437-4.515625 4.148437-2.332031 0-4.304687-1.824219-4.507812-4.144531l-6.238281-74.9375c-.253907-3.039062.746093-5.949219 2.8125-8.195312 2.066406-2.25 4.878906-3.484376 7.933593-3.484376 3.050781 0 5.871094 1.238282 7.9375 3.488282 2.066407 2.242187 3.066407 5.152344 2.8125 8.195312zm0 0" data-original="#000000" class="active-path" data-old_color="#000000" fill="#AC782E"/></g> </svg>
